<?xml version="1.0" standalone="no"?><!DOCTYPE svg PUBLIC "-//W3C//DTD SVG 1.1//EN" "http://www.w3.org/Graphics/SVG/1.1/DTD/svg11.dtd"><svg t="1609054986433" class="icon" viewBox="0 0 1024 1024" version="1.1" xmlns="http://www.w3.org/2000/svg" p-id="2523" xmlns:xlink="http://www.w3.org/1999/xlink" width="18" height="18"><defs><style type="text/css"></style></defs><path d="M512 32.256c-265.216 0-480.256 215.04-480.256 480.256s215.04 480.256 480.256 480.256 480.256-215.04 480.256-480.256-215.04-480.256-480.256-480.256z m0 940.544c-254.464 0-460.8-206.336-460.8-460.8s206.336-460.8 460.8-460.8 460.8 206.336 460.8 460.8-206.336 460.8-460.8 460.8z" fill="" p-id="2524"></path><path d="M410.624 691.712c-19.968 0-36.352-16.384-36.352-36.352V369.152c0-19.968 16.384-36.352 36.352-36.352 19.968 0 36.352 16.384 36.352 36.352V655.36c0.512 19.968-15.872 36.352-36.352 36.352zM612.352 691.712c-19.968 0-36.352-16.384-36.352-36.352V369.152c0-19.968 16.384-36.352 36.352-36.352 19.968 0 36.352 16.384 36.352 36.352V655.36c0 19.968-16.384 36.352-36.352 36.352z" fill="" p-id="2525"></path></svg>