<?xml version="1.0" standalone="no"?><!DOCTYPE svg PUBLIC "-//W3C//DTD SVG 1.1//EN" "http://www.w3.org/Graphics/SVG/1.1/DTD/svg11.dtd"><svg t="1608079216198" class="icon" viewBox="0 0 1024 1024" version="1.1" xmlns="http://www.w3.org/2000/svg" p-id="7234" xmlns:xlink="http://www.w3.org/1999/xlink" width="18" height="18"><defs><style type="text/css"></style></defs><path d="M598.4 560c57.6-76.8 51.2-182.4-19.2-249.6-73.6-73.6-195.2-73.6-272 0s-73.6 195.2 0 272 195.2 73.6 272 0l9.6-9.6 9.6-12.8z m150.4 144c6.4 6.4 6.4 16 0 22.4-6.4 6.4-16 6.4-22.4 0l-124.8-124.8c-86.4 86.4-230.4 86.4-316.8 0s-86.4-230.4 0-316.8 230.4-86.4 316.8 0c80 80 86.4 204.8 22.4 291.2l124.8 128z" fill="#5B6B73" p-id="7235"></path></svg>